<svg width="40" height="30" viewBox="0 0 40 30" fill="none" xmlns="http://www.w3.org/2000/svg">
<path d="M38.1661 9.20262H34.2312L32.242 1.40201C31.9921 0.421856 30.9913 -0.171971 30.0114 0.0777942L25.4763 1.2342C25.1704 1.31217 24.9857 1.62342 25.0636 1.92927C25.1417 2.23513 25.4528 2.41974 25.7587 2.34193L30.2938 1.18553C30.6634 1.09154 31.0402 1.31521 31.1344 1.68451L31.3547 2.54865L1.38562 10.1905L1.16531 9.32645C1.11968 9.14754 1.14648 8.96153 1.2407 8.80278C1.335 8.64403 1.48547 8.53145 1.66437 8.48582L22.2783 3.22935C22.5842 3.15138 22.7689 2.84013 22.691 2.53427C22.6129 2.22842 22.3019 2.04381 21.9959 2.12162L1.38187 7.37809C0.401717 7.62801 -0.192344 8.62871 0.0575773 9.60879L4.28476 26.1863C4.49608 27.0149 5.24397 27.5677 6.06249 27.5676C6.21202 27.5676 6.36405 27.5491 6.51546 27.5105L6.78608 27.4415V28.1448C6.78608 29.1563 7.60897 29.9792 8.62045 29.9792H38.1661C39.1776 29.9792 40.0005 29.1563 40.0005 28.1448V11.037C40.0005 10.0255 39.1776 9.20262 38.1661 9.20262ZM6.78616 26.2618L6.23311 26.4028C5.86382 26.497 5.48671 26.2731 5.39249 25.9038L2.80499 15.7567L6.78616 14.7415V26.2618ZM6.78616 11.0369V13.5618L2.52257 14.649L1.66812 11.2981L7.19053 9.88988C6.93788 10.2043 6.78616 10.6032 6.78616 11.0369ZM33.0515 9.20254H28.508L32.7741 8.11473L33.0515 9.20254ZM31.6372 3.65615L32.4917 7.00708L23.8818 9.20262H9.88607L31.6372 3.65615ZM38.1661 28.8361H8.62053C8.23936 28.8361 7.9292 28.526 7.9292 28.1448V26.7059V11.037C7.9292 10.6558 8.23928 10.3457 8.62053 10.3457H38.1661C38.5473 10.3457 38.8573 10.6558 38.8573 11.037V28.1448C38.8573 28.526 38.5473 28.8361 38.1661 28.8361Z" fill="#688800"/>
</svg>
