<svg width="40" height="40" viewBox="0 0 40 40" fill="none" xmlns="http://www.w3.org/2000/svg">
<g clip-path="url(#clip0_1_1928)">
<path d="M26.8181 8.68461H25.6885C25.8877 8.33743 26.0024 7.93571 26.0024 7.5075V3.9129C26.0024 2.60454 24.938 1.54016 23.6297 1.54016H2.37273C1.06438 1.54063 0 2.605 0 3.91329V7.50789C0 8.81625 1.06438 9.88063 2.37273 9.88063H3.50219C3.30297 10.2278 3.18828 10.6295 3.18828 11.0577V14.6523C3.18828 15.0806 3.30289 15.4823 3.50219 15.8295H2.37273C1.06438 15.8294 0 16.8938 0 18.202V21.7966C0 22.8312 0.665859 23.7127 1.59125 24.0365C1.34156 24.4121 1.19562 24.8624 1.19562 25.3464V28.941C1.19562 29.425 1.34156 29.8753 1.59125 30.2509C0.665859 30.5747 0 31.4563 0 32.4908V36.0854C0 37.3937 1.06438 38.458 2.37273 38.458H20.6008C20.931 38.458 21.1986 38.1904 21.1986 37.8602C21.1986 37.5301 20.9309 37.2624 20.6008 37.2624H2.37273C1.72359 37.2624 1.19562 36.7344 1.19562 36.0854V32.4908C1.19562 31.8417 1.72367 31.3137 2.37273 31.3137H3.56836H6.74148H13.9324C14.2627 31.3137 14.5302 31.046 14.5302 30.7159C14.5302 30.3857 14.2627 30.118 13.9324 30.118H6.74141H3.56836C2.91922 30.118 2.39125 29.59 2.39125 28.9409V25.3463C2.39125 24.6973 2.9193 24.1692 3.56836 24.1692H12.8431C13.1734 24.1692 13.4409 23.9016 13.4409 23.5714C13.4409 23.2413 13.1734 22.9736 12.8431 22.9736H2.37273C1.72359 22.9736 1.19562 22.4456 1.19562 21.7965V18.2019C1.19562 17.5528 1.72367 17.0248 2.37273 17.0248H5.56102H10.3459H16.2305C16.5608 17.0248 16.8284 16.7571 16.8284 16.427C16.8284 16.0968 16.5608 15.8291 16.2305 15.8291H10.3459H5.56102C4.91187 15.8291 4.38391 15.3011 4.38391 14.652V11.0574C4.38391 10.4084 4.91195 9.88032 5.56102 9.88032H23.6298H26.8181C27.4673 9.88032 27.9952 10.4084 27.9952 11.0574V11.5033C27.9952 11.8334 28.2628 12.1011 28.593 12.1011C28.9233 12.1011 29.1909 11.8334 29.1909 11.5033V11.0574C29.1909 9.74899 28.1265 8.68461 26.8181 8.68461ZM24.8069 7.50789C24.8069 8.15696 24.2788 8.685 23.6298 8.685H5.56102H2.37273C1.72359 8.68493 1.19562 8.15688 1.19562 7.50789V3.91329C1.19562 3.26422 1.72367 2.73618 2.37273 2.73618H23.6298C24.2789 2.73618 24.8069 3.26422 24.8069 3.91329V7.50789Z" fill="#688800"/>
<path d="M34.0883 14.5578C33.8119 14.3776 33.4414 14.4556 33.2612 14.7322C33.0808 15.0088 33.159 15.3792 33.4355 15.5594C36.7974 17.7503 38.8044 21.4506 38.8044 25.4577C38.8044 31.9673 33.5084 37.2633 26.9988 37.2633C20.4891 37.2633 15.1931 31.9673 15.1931 25.4577C15.1931 18.9481 20.4891 13.6521 26.9988 13.6521C28.708 13.6521 30.3564 14.0091 31.8981 14.7133C32.1987 14.8506 32.5531 14.7182 32.6902 14.4179C32.8274 14.1176 32.6951 13.763 32.3948 13.6258C30.6961 12.8499 28.8806 12.4565 26.9988 12.4565C19.83 12.4565 13.9976 18.2889 13.9976 25.4577C13.9976 32.6265 19.83 38.4589 26.9988 38.4589C34.1676 38.4589 40.0001 32.6266 40.0001 25.4578C40.0001 21.0449 37.7901 16.9701 34.0883 14.5578Z" fill="#688800"/>
<path d="M33.6229 18.8332C31.8534 17.0637 29.5008 16.0892 26.9985 16.0892C24.4961 16.0892 22.1435 17.0638 20.374 18.8332C18.0086 21.1985 17.0817 24.6761 17.9549 27.9089C18.041 28.2277 18.3689 28.4163 18.6878 28.3302C19.0065 28.2441 19.1951 27.916 19.109 27.5972C18.3471 24.7764 19.1558 21.7422 21.2195 19.6786C22.7631 18.135 24.8155 17.2848 26.9985 17.2848C29.1816 17.2848 31.234 18.1349 32.7776 19.6786C35.9642 22.8652 35.9642 28.0502 32.7776 31.2368C29.591 34.4234 24.4061 34.4234 21.2195 31.2368C20.6467 30.664 20.1647 30.0151 19.7868 29.3081C19.6313 29.017 19.2692 28.907 18.9779 29.0628C18.6867 29.2183 18.5768 29.5806 18.7325 29.8717C19.1659 30.6825 19.7182 31.4262 20.3741 32.0821C22.2005 33.9085 24.5996 34.8217 26.9986 34.8217C29.3977 34.8217 31.7967 33.9086 33.6231 32.0821C37.2757 28.4295 37.2757 22.486 33.6229 18.8332Z" fill="#688800"/>
<path d="M27.5969 24.9078V21.6158C28.4685 21.8188 29.1063 22.4537 29.1063 23.2038C29.1063 23.534 29.3739 23.8016 29.7041 23.8016C30.0343 23.8016 30.3019 23.534 30.3019 23.2038C30.3019 21.8076 29.1336 20.6434 27.597 20.3997V20.0481C27.597 19.718 27.3294 19.4503 26.9992 19.4503C26.6689 19.4503 26.4014 19.718 26.4014 20.0481V20.3997C24.8647 20.6434 23.6964 21.8077 23.6964 23.2038C23.6964 24.6 24.8647 25.7643 26.4014 26.008V29.3C25.5297 29.0969 24.8919 28.4621 24.8919 27.7119C24.8919 27.3818 24.6243 27.1141 24.2941 27.1141C23.9639 27.1141 23.6963 27.3818 23.6963 27.7119C23.6963 29.1082 24.8647 30.2724 26.4013 30.5161V30.8676C26.4013 31.1978 26.6689 31.4655 26.9991 31.4655C27.3293 31.4655 27.5969 31.1978 27.5969 30.8676V30.5161C29.1336 30.2724 30.3018 29.1081 30.3018 27.7119C30.3018 26.3158 29.1336 25.1515 27.5969 24.9078ZM26.4014 24.7919C25.5297 24.5888 24.8919 23.954 24.8919 23.2038C24.8919 22.4537 25.5297 21.8189 26.4014 21.6158V24.7919ZM27.5968 29.3V26.124C28.4684 26.327 29.1062 26.9619 29.1062 27.712C29.1062 28.462 28.4684 29.0969 27.5968 29.3Z" fill="#688800"/>
</g>
<defs>
<clipPath id="clip0_1_1928">
<rect width="40" height="40" fill="white"/>
</clipPath>
</defs>
</svg>
