<svg width="38" height="40" viewBox="0 0 38 40" fill="none" xmlns="http://www.w3.org/2000/svg">
<path d="M36.4039 1.28296H33.8371C33.5128 1.28296 33.25 1.54572 33.25 1.87C33.25 2.19428 33.5128 2.45704 33.8371 2.45704H36.4039C36.5534 2.45704 36.6751 2.57867 36.6751 2.72817V18.489C36.6751 18.6385 36.5534 18.7602 36.4039 18.7602H12.3839V17.5862H28.2378C28.5621 17.5862 28.8249 17.3234 28.8249 16.9991C28.8249 16.6748 28.5621 16.4121 28.2378 16.4121H12.3839V13.9219C12.3839 12.348 11.1034 11.0675 9.52946 11.0675C7.95564 11.0675 6.67511 12.348 6.67511 13.9219V16.4121H5.31701C5.10607 15.6114 4.47426 14.9796 3.67361 14.7687V10.5976C3.67361 10.2734 3.41085 10.0106 3.08657 10.0106C2.76229 10.0106 2.49953 10.2734 2.49953 10.5976V15.28C2.49953 15.6043 2.76229 15.8671 3.08657 15.8671C3.71079 15.8671 4.21862 16.3749 4.21862 16.9991C4.21862 17.3234 4.48138 17.5862 4.80566 17.5862H6.67519V18.7602H1.59658C1.44708 18.7602 1.32545 18.6385 1.32545 18.489V2.72809C1.32545 2.57859 1.44708 2.45696 1.59658 2.45696H9.7069V3.63104H4.80566C4.48138 3.63104 4.21862 3.8938 4.21862 4.21808C4.21862 4.8423 3.71079 5.35013 3.08657 5.35013C2.76229 5.35013 2.49953 5.61289 2.49953 5.93717V8.09576C2.49953 8.42004 2.76229 8.6828 3.08657 8.6828C3.41085 8.6828 3.67361 8.42004 3.67361 8.09576V6.4486C4.47426 6.23766 5.10607 5.60585 5.31701 4.8052H9.7069V5.03148C9.7069 6.43983 10.8527 7.58566 12.2612 7.58566C12.9145 7.58566 13.511 7.33887 13.9632 6.93389C14.3999 7.71739 15.2367 8.24878 16.1956 8.24878C17.1544 8.24878 17.9912 7.71739 18.4279 6.93389C18.8801 7.33879 19.4766 7.58566 20.1299 7.58566C21.1304 7.58566 21.9979 7.00715 22.4168 6.16737C22.8619 6.54409 23.4368 6.77194 24.0643 6.77194C25.2704 6.77194 26.2834 5.9313 26.5495 4.80528H32.6837C32.8946 5.60592 33.5264 6.23774 34.3271 6.44868V14.7688C33.5264 14.9797 32.8946 15.6115 32.6837 16.4122H30.7396C30.4153 16.4122 30.1526 16.6749 30.1526 16.9992C30.1526 17.3235 30.4153 17.5862 30.7396 17.5862H33.195C33.5193 17.5862 33.7821 17.3235 33.7821 16.9992C33.7821 16.375 34.2899 15.8672 34.9141 15.8672C35.2384 15.8672 35.5011 15.6044 35.5011 15.2801V5.93725C35.5011 5.61297 35.2384 5.35021 34.9141 5.35021C34.2899 5.35021 33.7821 4.84238 33.7821 4.21816C33.7821 3.89388 33.5193 3.63112 33.195 3.63112H26.6185V2.45704H31.3354C31.6597 2.45704 31.9225 2.19428 31.9225 1.87C31.9225 1.54572 31.6597 1.28296 31.3354 1.28296H26.5093C26.2457 0.536477 25.5336 0 24.698 0H23.4303C22.9127 0 22.4427 0.206169 22.0971 0.540234C21.7514 0.206169 21.2813 0 20.7638 0H19.496C18.9785 0 18.5084 0.206169 18.1627 0.540234C17.817 0.206169 17.347 0 16.8293 0H15.5617C15.0441 0 14.574 0.206169 14.2284 0.540234C13.8826 0.206169 13.4126 0 12.8951 0H11.6273C10.7918 0 10.0796 0.536477 9.81617 1.28296H1.59658C0.799694 1.28296 0.151367 1.93129 0.151367 2.72817V18.489C0.151367 19.2859 0.799694 19.9343 1.59658 19.9343H6.67519V24.2885C6.67519 25.5408 7.16282 26.7182 8.04831 27.6037L10.562 30.1173V39.413C10.562 39.7372 10.8248 40 11.1491 40C11.4733 40 11.7361 39.7372 11.7361 39.413V29.8742C11.7361 29.7185 11.6743 29.5692 11.5642 29.459L8.87855 26.7734C8.2148 26.1097 7.84927 25.2271 7.84927 24.2884V13.9218C7.84927 12.9953 8.60303 12.2415 9.52953 12.2415C10.456 12.2415 11.2099 12.9953 11.2099 13.9218V19.3472C11.2099 19.6715 11.4726 19.9343 11.7969 19.9343C14.436 19.9343 16.583 22.0813 16.583 24.7204V25.0965C16.583 25.4207 16.8458 25.6835 17.1701 25.6835C17.4943 25.6835 17.7571 25.4207 17.7571 25.0965V24.7204C17.7571 22.7614 16.8065 21.0212 15.3431 19.9342H27.6508V20.2375C27.6508 21.2797 27.3298 22.2786 26.7226 23.1257L25.0329 25.4833C24.9614 25.5829 24.923 25.7026 24.923 25.8252V39.4129C24.923 39.7372 25.1857 39.9999 25.51 39.9999C25.8343 39.9999 26.0971 39.7372 26.0971 39.4129V26.014L27.6769 23.8098C28.428 22.762 28.8249 21.5268 28.8249 20.2376V19.9343H36.404C37.201 19.9343 37.8493 19.2859 37.8493 18.489V2.72809C37.8492 1.93129 37.2009 1.28296 36.4039 1.28296ZM23.4303 1.17408H24.698C25.1095 1.17408 25.4443 1.50885 25.4443 1.92033V4.21761C25.4443 4.97865 24.8251 5.59778 24.0641 5.59778C23.3031 5.59778 22.684 4.97865 22.684 4.21761V1.92033C22.6841 1.50885 23.0188 1.17408 23.4303 1.17408ZM19.496 1.17408H20.7638C21.1752 1.17408 21.51 1.50885 21.51 1.92033V5.03141C21.51 5.79245 20.8909 6.4115 20.1298 6.4115C19.3688 6.4115 18.7497 5.79245 18.7497 5.03141V1.92033C18.7497 1.50885 19.0845 1.17408 19.496 1.17408ZM15.5617 1.17408H16.8293C17.2408 1.17408 17.5756 1.50885 17.5756 1.92033V5.69461C17.5756 6.45565 16.9565 7.0747 16.1955 7.0747H16.1954C15.4344 7.0747 14.8153 6.45565 14.8153 5.69461V1.92033C14.8154 1.50885 15.1502 1.17408 15.5617 1.17408ZM10.881 1.92033C10.881 1.50885 11.2158 1.17408 11.6272 1.17408H12.895C13.3065 1.17408 13.6412 1.50885 13.6412 1.92033V5.03141C13.6412 5.79245 13.0221 6.4115 12.2611 6.4115C11.5 6.4115 10.8809 5.79245 10.8809 5.03141V1.92033H10.881Z" fill="#688800"/>
</svg>
