<svg width="40" height="34" viewBox="0 0 40 34" fill="none" xmlns="http://www.w3.org/2000/svg">
<path d="M38.1616 32.0706H37.495V14.6876C39.0002 13.7191 40 12.0302 40 10.1112C40 10.0092 39.9734 9.90898 39.9228 9.82046L35.2734 1.6839C34.9468 1.11257 34.3352 0.757568 33.6771 0.757568H6.32289C5.66484 0.757568 5.0532 1.11249 4.72664 1.6839L0.0771875 9.82046C0.0266406 9.90898 0 10.0093 0 10.1112C0 12.0302 0.999844 13.7191 2.505 14.6876V32.0706H1.83844C1.51484 32.0706 1.2525 32.333 1.2525 32.6566C1.2525 32.9801 1.51484 33.2425 1.83844 33.2425H38.1616C38.4852 33.2425 38.7475 32.9801 38.7475 32.6566C38.7475 32.333 38.4852 32.0706 38.1616 32.0706ZM1.21227 10.6971H3.0907C3.4143 10.6971 3.67664 10.4348 3.67664 10.1112C3.67664 9.78757 3.4143 9.52523 3.0907 9.52523H1.59562L5.74414 2.2653C5.86258 2.05812 6.0843 1.92944 6.32289 1.92944H33.6771C33.9157 1.92944 34.1375 2.05812 34.2559 2.2653L38.4043 9.52523H36.9089C36.5852 9.52523 36.323 9.78757 36.323 10.1112C36.323 10.4348 36.5852 10.6971 36.9089 10.6971H38.7877C38.5012 12.774 36.7148 14.3787 34.5605 14.3787C32.4062 14.3787 30.6207 12.7738 30.3341 10.6971H34.4041C34.7278 10.6971 34.9901 10.4348 34.9901 10.1112C34.9901 9.78757 34.7278 9.52523 34.4041 9.52523H5.59617C5.27258 9.52523 5.01023 9.78757 5.01023 10.1112C5.01023 10.4348 5.27258 10.6971 5.59617 10.6971H9.66578C9.37922 12.7738 7.59367 14.3787 5.43945 14.3787C3.28508 14.3787 1.49875 12.774 1.21227 10.6971ZM29.0798 10.6971C28.7933 12.7738 27.0077 14.3787 24.8535 14.3787C22.6992 14.3787 20.9138 12.7738 20.6272 10.6971H29.0798ZM19.3728 10.6971C19.0863 12.7738 17.3007 14.3787 15.1465 14.3787C12.9923 14.3787 11.2067 12.7738 10.9202 10.6971H19.3728ZM33.1917 32.0707H26.8485V30.1112H33.1917V32.0707ZM33.1917 28.9394H26.8485V18.2123H33.1917V28.9394ZM36.3231 32.0707H34.3637V17.6263C34.3637 17.3027 34.1014 17.0404 33.7777 17.0404H26.2627C25.939 17.0404 25.6767 17.3027 25.6767 17.6263V32.0706H3.67687V15.2559C4.23008 15.4459 4.82258 15.5506 5.43945 15.5506C7.55625 15.5506 9.39445 14.3353 10.293 12.5657C11.1915 14.3352 13.0297 15.5506 15.1465 15.5506C17.2633 15.5506 19.1015 14.3353 20 12.5657C20.8985 14.3352 22.7367 15.5506 24.8535 15.5506C26.9703 15.5506 28.8085 14.3353 29.707 12.5657C30.6055 14.3352 32.4437 15.5506 34.5605 15.5506C35.1774 15.5506 35.7699 15.4459 36.3231 15.2559V32.0707Z" fill="#688800"/>
</svg>
